<?xml version="1.0" encoding="utf-8"?>
<!-- Generator: Adobe Illustrator 25.3.1, SVG Export Plug-In . SVG Version: 6.00 Build 0)  -->
<svg version="1.1" id="Layer_1"
	xmlns="http://www.w3.org/2000/svg"
	xmlns:xlink="http://www.w3.org/1999/xlink" x="0px" y="0px" viewBox="0 0 199.4 199.4" style="enable-background:new 0 0 199.4 199.4;" xml:space="preserve">
	<style type="text/css">
	.st0{fill:#FDFEFE;}
	.st1{fill:#222C9D;}
	</style>
	<g>
		<path class="st0" d="M91.9,168.6c-3.9,0-7.9,0-11.8,0c-0.8-0.2-1.6-0.1-2.4-0.1c-3.5,0-6.9-0.8-10.2-1.7c-3.3-0.9-6.5-2-9.6-3.3
		c-2.6-1.1-5.1-2.4-7.5-3.9c-3.5-2.2-6.7-4.7-9.8-7.4c-3.8-3.5-7.3-7.3-10.1-11.6c-4.8-7.3-8.3-15.3-9.9-24c-0.6-3-0.9-6-1-9
		c-0.1-2.6,0-5.2,0-7.8c0-3.8,0.5-7.6,1.4-11.4c1.1-4.6,2.6-9,4.7-13.2c2.4-5,5.3-9.6,8.8-13.8c1.7-2.1,3.5-4,5.4-5.8
		c3.6-3.4,7.6-6.3,11.9-8.8c4.3-2.4,8.7-4.4,13.4-5.9c4.1-1.3,8.3-2.2,12.5-2.7c2.9-0.3,5.9-0.5,8.8-0.4c5.7,0.2,11.3,1,16.7,2.7
		c1.3,0.4,2.6,0.8,3.9,1.3c2.6,1,5.3,1,8,0.6c3.2-0.5,6.4-0.9,9.6-1.6c4-0.8,7.9-1.8,11.7-3c4.7-1.4,9.4-3,13.9-4.9
		c1.3-0.5,2.5-1.1,3.8-1.7c0.2-0.1,0.4-0.2,0.6-0.2c0.2,0,0.4-0.2,0.6,0c0.2,0.2,0,0.5-0.1,0.7c-0.9,1.3-2,2.5-3,3.7
		c-2.7,3.1-5.9,5.9-9.2,8.3c-2.1,1.5-4.3,2.9-6.6,4.1c-1.4,0.8-2.8,1.6-4.1,2.4c-1.5,0.8-3.1,1.5-4.7,2c-1.1,0.3-1.2,0.8-0.6,1.7
		c1.2,1.8,2.5,3.5,3.7,5.4c0.6,1,1.2,2,1.7,3.1c0.7,1.5,1.2,1.6,2.7,1.4c5.4-0.9,10.8-1.6,16.1-2.8c3.8-0.8,7.4-1.8,11.1-2.9
		c4.2-1.2,8.3-2.6,12.3-4.2c1.4-0.6,2.9-1.3,4.3-1.9c0.7-0.4,1-0.3,1.5,0.2c0,0,0,0.1,0,0.1c-0.2,0.8-0.8,1.3-1.3,1.8
		c-0.6,0.5-1.2,1.1-1.8,1.7c-3.6,3.6-7.5,6.8-11.6,9.8c-3.5,2.5-7.3,4.8-11.2,6.7c-5.1,2.4-10.3,4.1-15.9,4.8
		c-1.3,0.2-1.4,0.3-1,1.6c1.4,4.1,2.9,8.2,4.3,12.3c1.2,3.5,2.4,6.9,3.3,10.4c0.4,1.7,0.2,3.2-1.1,4.4c-0.4,0.4-0.9,0.9-1.3,1.3
		c-0.5,0.5-0.5,0.7,0,1.2c1.4,1.4,2.6,3,3.9,4.5c2,2.4,3,5.3,3.4,8.3c0.5,3.1,0.9,6.3,1.5,9.4c0.3,1.7,0.9,3.4,1.9,4.8
		c1.2,1.7,1.3,3.6,0.8,5.5c-0.4,1.5-1.2,2.7-2.2,3.8c-3.9,3.9-8.4,7.1-13.5,9.4c-1.9,0.9-3.9,1.6-5.9,2.1c-1.5,0.4-2.9,0.9-4.4,1.1
		c-3.5,0.6-6.9,0.1-9.9-1.9c-2.1-1.4-4-2.9-6.1-4.2c-2.8-1.7-5.8-3.1-9.2-3.4c-1.3-0.1-2.6-0.2-4-0.1c-2.6,0.1-5.3,0.2-7.9-0.2
		c-0.7-0.1-1.4-0.2-2.1-0.2c-2,0-4-0.2-6-0.3c-4.2-0.3-8-1.6-11.2-4.3c-3.5-3-5.6-6.7-5.8-11.3c-0.1-1.3-0.1-2.5-0.1-3.8
		c0-2.9,0.4-5.8,1.4-8.5c0-0.1,0.1-0.2,0-0.3c-0.7,1.1-1.3,2.2-1.8,3.4c-1.1,2.4-2,5-2.4,7.6c-0.7,5.2,0.2,10,3.5,14.2
		c1.8,2.3,4.1,3.8,6.7,5c1.9,0.8,3.9,1.5,5.9,2c0.1,0,0.3,0.1,0.4,0.1c0.6,0.2,0.7,0.7,0.2,1.1c-0.7,0.6-1.4,1.1-2.2,1.5
		c-1.5,1-2.8,2.3-3.5,4c-0.7,1.8-0.2,2.9,1.6,3.6c2.4,0.9,5,1.4,7.5,2c4.3,1,8.6,1.6,12.9,2.7c0.8,0.2,1.5,0.4,2.3,0.7
		c0.3,0.1,0.7,0.2,0.7,0.6c0,0.4-0.4,0.4-0.7,0.5c-1.9,0.5-3.7,0.7-5.6,0.7C92.4,168.5,92.1,168.5,91.9,168.6z"/>
		<path class="st1" d="M132.6,105.8c-0.3,0-0.4-0.1-0.6-0.2c-3.3-2-6.3-4.3-9.3-6.7c-2.2-1.8-4.4-3.7-6.6-5.6
		c-0.1-0.1-0.3-0.2-0.3-0.4c0.2-0.1,0.4-0.1,0.6-0.1c3.1,0,6.2,0,9.3,0c1.1,0,1.9,0.4,2.6,1.1c1.5,1.7,2.6,3.7,3.3,5.8
		c0.6,1.9,0.9,3.9,1.2,5.9C132.6,105.7,132.6,105.7,132.6,105.8z"/>
	</g>
</svg>
