<svg width="186" height="119" viewBox="0 0 186 119" fill="none" xmlns="http://www.w3.org/2000/svg">
<g clip-path="url(#clip0)">
<path d="M136.527 108.467C133.652 111.545 130.357 114.203 126.74 116.362C126.657 116.413 126.573 116.461 126.488 116.51L120.633 111.328C120.695 111.271 120.763 111.207 120.836 111.136C125.199 106.994 146.857 78.0294 148.301 70.9761C148.201 71.5637 149.603 94.6075 136.527 108.467Z" fill="#F0F0F0"/>
<path d="M127.87 117.362C127.759 117.388 127.647 117.413 127.534 117.435L123.141 113.547C123.227 113.517 123.327 113.482 123.442 113.442C125.327 112.775 130.94 110.76 136.526 108.466C142.529 105.999 148.503 103.212 149.787 101.427C149.512 101.842 141.023 114.421 127.87 117.362Z" fill="#F0F0F0"/>
<path d="M136.446 31.8063H135.82V14.6694C135.82 13.3669 135.564 12.0771 135.065 10.8738C134.567 9.67041 133.836 8.57702 132.915 7.65601C131.994 6.735 130.901 6.00442 129.698 5.50597C128.494 5.00752 127.205 4.75098 125.902 4.75098H89.5952C88.2927 4.75097 87.0029 5.00752 85.7996 5.50596C84.5962 6.0044 83.5028 6.73498 82.5818 7.65599C81.6608 8.57699 80.9302 9.67038 80.4318 10.8737C79.9333 12.0771 79.6768 13.3668 79.6768 14.6693V108.684C79.6768 109.986 79.9333 111.276 80.4317 112.479C80.9302 113.683 81.6608 114.776 82.5818 115.697C83.5028 116.618 84.5962 117.349 85.7995 117.847C87.0029 118.346 88.2926 118.602 89.5951 118.602H125.902C127.205 118.602 128.494 118.346 129.698 117.847C130.901 117.349 131.994 116.618 132.915 115.697C133.836 114.776 134.567 113.683 135.065 112.479C135.564 111.276 135.82 109.986 135.82 108.684V44.0046H136.446V31.8063Z" fill="#3F3D56"/>
<path d="M133.709 14.7374V108.615C133.709 109.588 133.517 110.551 133.145 111.45C132.773 112.348 132.227 113.165 131.539 113.852C130.851 114.54 130.034 115.086 129.135 115.458C128.237 115.83 127.273 116.021 126.301 116.021H89.819C88.8465 116.021 87.8835 115.829 86.985 115.457C86.0865 115.085 85.2701 114.539 84.5824 113.852C83.8948 113.164 83.3493 112.348 82.9771 111.449C82.605 110.551 82.4135 109.588 82.4136 108.615V14.7374C82.4135 13.7649 82.605 12.8019 82.9771 11.9034C83.3493 11.0049 83.8948 10.1885 84.5824 9.50086C85.2701 8.81319 86.0865 8.26772 86.985 7.89559C87.8835 7.52346 88.8465 7.33196 89.819 7.33203H94.2463C94.0289 7.86639 93.9463 8.44596 94.0055 9.01976C94.0647 9.59357 94.264 10.144 94.5859 10.6227C94.9077 11.1015 95.3423 11.4937 95.8514 11.7651C96.3604 12.0365 96.9283 12.1786 97.5052 12.179H118.304C118.882 12.1795 119.45 12.038 119.96 11.7669C120.469 11.4958 120.904 11.1034 121.226 10.6244C121.548 10.1455 121.748 9.59457 121.806 9.02038C121.865 8.44619 121.782 7.86636 121.563 7.33203H126.301C127.273 7.33168 128.237 7.52297 129.135 7.89497C130.034 8.26696 130.851 8.81239 131.539 9.50008C132.227 10.1878 132.773 11.0043 133.145 11.9029C133.517 12.8015 133.709 13.7647 133.709 14.7374Z" fill="white"/>
<path d="M122.361 63.5213H90.2942C89.7326 63.5207 89.1941 63.2973 88.797 62.9002C88.3998 62.503 88.1764 61.9645 88.1758 61.4029V60.3484C88.1764 59.7868 88.3998 59.2483 88.797 58.8512C89.1941 58.454 89.7326 58.2306 90.2942 58.23H122.361C122.922 58.2306 123.461 58.454 123.858 58.8512C124.255 59.2483 124.478 59.7868 124.479 60.3484V61.4029C124.478 61.9645 124.255 62.503 123.858 62.9002C123.461 63.2973 122.922 63.5207 122.361 63.5213Z" fill="#F0F0F0"/>
<path d="M122.361 72.6107H90.2942C89.7326 72.6101 89.1941 72.3867 88.797 71.9895C88.3998 71.5924 88.1764 71.0539 88.1758 70.4922V69.4378C88.1764 68.8761 88.3998 68.3377 88.797 67.9405C89.1941 67.5434 89.7326 67.32 90.2942 67.3193H122.361C122.922 67.32 123.461 67.5434 123.858 67.9405C124.255 68.3377 124.478 68.8761 124.479 69.4378V70.4922C124.478 71.0539 124.255 71.5924 123.858 71.9895C123.461 72.3867 122.922 72.6101 122.361 72.6107Z" fill="#F0F0F0"/>
<path d="M123.964 61.4886H91.8982C91.3085 61.4879 90.7431 61.2533 90.3261 60.8363C89.9091 60.4193 89.6745 59.8539 89.6738 59.2642V58.2097C89.6745 57.62 89.9091 57.0546 90.3261 56.6376C90.7431 56.2206 91.3085 55.986 91.8982 55.9854H123.964C124.554 55.986 125.12 56.2206 125.537 56.6376C125.954 57.0546 126.188 57.62 126.189 58.2097V59.2642C126.188 59.8539 125.954 60.4193 125.537 60.8363C125.12 61.2533 124.554 61.4879 123.964 61.4886ZM91.8982 56.409C91.4208 56.4096 90.9631 56.5995 90.6255 56.937C90.2879 57.2746 90.0981 57.7323 90.0975 58.2097V59.2642C90.0981 59.7416 90.2879 60.1993 90.6255 60.5369C90.9631 60.8745 91.4208 61.0643 91.8982 61.0649H123.964C124.442 61.0643 124.9 60.8745 125.237 60.5369C125.575 60.1993 125.765 59.7416 125.765 59.2642V58.2097C125.765 57.7323 125.575 57.2746 125.237 56.937C124.9 56.5995 124.442 56.4096 123.964 56.409H91.8982Z" fill="#3F3D56"/>
<path d="M123.964 70.5784H91.8982C91.3085 70.5777 90.7431 70.3432 90.3261 69.9262C89.9091 69.5092 89.6745 68.9438 89.6738 68.354V67.2996C89.6745 66.7098 89.9091 66.1444 90.3261 65.7274C90.7431 65.3104 91.3085 65.0759 91.8982 65.0752H123.964C124.554 65.0759 125.12 65.3104 125.537 65.7274C125.954 66.1444 126.188 66.7098 126.189 67.2996V68.354C126.188 68.9438 125.954 69.5092 125.537 69.9262C125.12 70.3432 124.554 70.5777 123.964 70.5784ZM91.8982 65.4989C91.4208 65.4994 90.9631 65.6893 90.6255 66.0269C90.2879 66.3645 90.0981 66.8222 90.0975 67.2996V68.354C90.0981 68.8314 90.2879 69.2891 90.6255 69.6267C90.9631 69.9643 91.4208 70.1542 91.8982 70.1547H123.964C124.442 70.1542 124.9 69.9643 125.237 69.6267C125.575 69.2891 125.765 68.8314 125.765 68.354V67.2996C125.765 66.8222 125.575 66.3645 125.237 66.0269C124.9 65.6893 124.442 65.4994 123.964 65.4989H91.8982Z" fill="#3F3D56"/>
<path d="M133.709 14.7374V35.1571C130.464 36.0108 127.067 36.1087 123.779 35.4434C120.49 34.7781 117.398 33.3674 114.741 31.3197C112.083 29.272 109.931 26.6419 108.449 23.6318C106.967 20.6217 106.196 17.3118 106.194 13.9568C106.194 13.358 106.218 12.7654 106.266 12.179H118.304C118.882 12.1795 119.45 12.038 119.96 11.7669C120.469 11.4958 120.904 11.1034 121.226 10.6244C121.548 10.1455 121.748 9.59457 121.806 9.02038C121.865 8.44619 121.782 7.86636 121.563 7.33203H126.301C127.273 7.33168 128.237 7.52297 129.135 7.89497C130.034 8.26696 130.851 8.81239 131.539 9.50008C132.227 10.1878 132.773 11.0043 133.145 11.9029C133.517 12.8015 133.709 13.7647 133.709 14.7374Z" fill="#F2F2F2"/>
<path d="M100.847 114.745C100.847 115.176 100.831 115.601 100.796 116.021H89.819C88.8465 116.021 87.8835 115.829 86.985 115.457C86.0865 115.085 85.2701 114.54 84.5824 113.852C83.8948 113.164 83.3493 112.348 82.9771 111.449C82.605 110.551 82.4135 109.588 82.4136 108.615V98.5739C84.7145 98.2746 87.0528 98.4692 89.2727 99.1447C91.4925 99.8202 93.5429 100.961 95.2871 102.491C97.0314 104.022 98.4294 105.906 99.3881 108.019C100.347 110.132 100.844 112.425 100.847 114.745H100.847Z" fill="#222C9D"/>
<path opacity="0.5" d="M49.3386 61.5373L42.2314 56.1016L36.7957 63.2087L43.9029 68.6445L49.3386 61.5373Z" fill="#D0EEF2"/>
<path opacity="0.7" d="M58.3205 25.3983C59.3841 25.038 60.5172 24.9318 61.6292 25.0882C62.7412 25.2446 63.8011 25.6592 64.7241 26.2988L66.9191 19.8298L52.0739 14.7926L47.0368 29.6378L53.435 31.8088C53.5175 30.375 54.0267 28.9986 54.8972 27.8563C55.7678 26.714 56.9599 25.8581 58.3205 25.3983Z" fill="#D0EEF2"/>
<path d="M113.271 83.5721H98.0472C97.4855 83.5715 96.947 83.3481 96.5499 82.9509C96.1527 82.5538 95.9293 82.0153 95.9287 81.4537V80.3992C95.9293 79.8376 96.1527 79.2991 96.5499 78.9019C96.947 78.5048 97.4855 78.2814 98.0472 78.2808H113.271C113.832 78.2814 114.371 78.5048 114.768 78.9019C115.165 79.2991 115.389 79.8376 115.389 80.3992V81.4537C115.389 82.0153 115.165 82.5538 114.768 82.9509C114.371 83.3481 113.832 83.5715 113.271 83.5721Z" fill="#222C9D"/>
<path d="M114.875 81.5393H99.6516C99.0619 81.5387 98.4965 81.3041 98.0795 80.8871C97.6625 80.4701 97.4279 79.9047 97.4272 79.315V78.2605C97.4279 77.6708 97.6625 77.1054 98.0795 76.6884C98.4965 76.2714 99.0619 76.0368 99.6516 76.0361H114.875C115.465 76.0368 116.03 76.2714 116.447 76.6884C116.864 77.1054 117.099 77.6708 117.1 78.2605V79.315C117.099 79.9047 116.864 80.4701 116.447 80.8871C116.03 81.3041 115.465 81.5387 114.875 81.5393ZM99.6516 76.4598C99.1742 76.4604 98.7165 76.6502 98.3789 76.9878C98.0414 77.3254 97.8515 77.7831 97.8509 78.2605V79.315C97.8515 79.7924 98.0414 80.2501 98.3789 80.5877C98.7165 80.9252 99.1742 81.1151 99.6516 81.1156H114.875C115.353 81.1151 115.81 80.9252 116.148 80.5877C116.486 80.2501 116.675 79.7924 116.676 79.315V78.2605C116.675 77.7831 116.486 77.3254 116.148 76.9878C115.81 76.6502 115.353 76.4604 114.875 76.4598H99.6516Z" fill="#3F3D56"/>
<path d="M56.1196 117.484C58.4792 115.49 59.9125 112.34 59.5366 109.274C59.1607 106.208 56.8327 103.389 53.8129 102.738C50.7931 102.087 47.3507 103.889 46.4335 106.839C45.9287 101.152 45.3471 95.226 42.3233 90.3828C39.5854 85.9973 34.8434 82.8594 29.704 82.298C24.5646 81.7366 19.1535 83.8569 15.9483 87.9133C12.7431 91.9697 11.9583 97.867 14.2032 102.524C15.8569 105.955 18.9036 108.508 22.0958 110.585C32.4109 117.241 44.7826 119.947 56.9345 118.207L56.1196 117.484Z" fill="#E9E9E9"/>
<path d="M21.0305 83.9748C25.2711 87.4288 29.1614 91.2919 32.6451 95.5081C38.0972 102.084 42.509 109.457 45.727 117.369C45.9626 117.947 45.0252 118.198 44.7923 117.627C39.5271 104.767 31.1218 93.4327 20.345 84.6602C19.8611 84.2661 20.5505 83.584 21.0305 83.9748Z" fill="white"/>
<path d="M71.2652 116.112H73.8624L75.0981 106.095L71.2648 106.095L71.2652 116.112Z" fill="#D68F79"/>
<path d="M75.7174 115.37H70.7086V118.524H78.8711C78.8711 118.11 78.7895 117.7 78.631 117.317C78.4725 116.934 78.2402 116.587 77.9474 116.294C77.6545 116.001 77.3069 115.769 76.9243 115.61C76.5416 115.452 76.1315 115.37 75.7174 115.37Z" fill="#2F2E41"/>
<path d="M58.3424 116.112H60.9396L62.1753 106.095L58.3419 106.095L58.3424 116.112Z" fill="#D68F79"/>
<path d="M62.7945 115.37H57.7857V118.524H65.9482C65.9482 118.11 65.8667 117.7 65.7082 117.317C65.5497 116.934 65.3174 116.587 65.0245 116.294C64.7317 116.001 64.384 115.769 64.0014 115.61C63.6188 115.452 63.2087 115.37 62.7945 115.37Z" fill="#2F2E41"/>
<path d="M84.2938 80.2864C84.4806 80.0111 84.6048 79.6982 84.6576 79.3697C84.7105 79.0412 84.6907 78.7052 84.5995 78.3852C84.5084 78.0652 84.3483 77.7691 84.1304 77.5177C83.9124 77.2663 83.642 77.0657 83.3382 76.9301L74.5094 52.5962L70.1651 54.967L80.2457 78.2214C80.0517 78.7469 80.0573 79.3253 80.2613 79.847C80.4653 80.3687 80.8535 80.7974 81.3525 81.0519C81.8515 81.3065 82.4265 81.3691 82.9686 81.228C83.5107 81.0869 83.9822 80.7519 84.2938 80.2864Z" fill="#D68F79"/>
<path d="M59.6691 84.8587C59.9578 84.6932 60.2066 84.4665 60.3981 84.1944C60.5896 83.9224 60.7192 83.6116 60.7776 83.2841C60.836 82.9566 60.8219 82.6202 60.7363 82.2987C60.6507 81.9772 60.4956 81.6784 60.282 81.4233L63.0171 55.6821L58.0731 55.908L56.9364 81.2278C56.5317 81.6151 56.283 82.1373 56.2376 82.6956C56.1922 83.2539 56.3532 83.8095 56.69 84.2571C57.0269 84.7046 57.5162 85.0131 58.0653 85.1239C58.6143 85.2348 59.185 85.1405 59.6691 84.8587Z" fill="#D68F79"/>
<path d="M67.5562 48.0889C64.6825 48.0889 62.353 45.7594 62.353 42.8858C62.353 40.0121 64.6825 37.6826 67.5562 37.6826C70.4298 37.6826 72.7593 40.0121 72.7593 42.8858C72.7593 45.7594 70.4298 48.0889 67.5562 48.0889Z" fill="#D68F79"/>
<path d="M59.7027 79.0045H75.3892L75.3703 78.8824C75.3421 78.6999 72.5746 60.5707 74.6157 54.6397C74.8206 54.0568 74.8025 53.4188 74.5652 52.8485C74.3278 52.2781 73.8878 51.8157 73.33 51.5502H73.3299C70.4125 50.1764 64.8122 48.4846 60.0854 52.5902C59.3898 53.2043 58.8466 53.9718 58.4988 54.8321C58.151 55.6923 58.0081 56.6216 58.0814 57.5466L59.7027 79.0045Z" fill="#222C9D"/>
<path d="M72.3763 63.2498L79.4385 61.8171L76.1281 53.9725C75.93 53.2127 75.4387 52.5625 74.7618 52.1645C74.085 51.7665 73.2779 51.6532 72.5176 51.8495C71.7574 52.0458 71.106 52.5356 70.7063 53.2115C70.3067 53.8874 70.1915 54.6942 70.3859 55.4549L72.3763 63.2498Z" fill="#222C9D"/>
<path d="M63.3312 65.9102L63.7558 56.1778C64.0778 54.3482 63.0304 52.6187 61.4197 52.336C59.8085 52.0543 58.2353 53.3232 57.9119 55.1662L56.3161 64.2603L63.3312 65.9102Z" fill="#222C9D"/>
<path d="M60.2243 77.8394C57.7002 87.4522 57.4249 99.6741 58.1058 113.006L61.4953 112.582L67.6388 87.1605L71.0284 113.006L74.8416 112.794C75.9808 98.8057 77.09 86.7972 75.2653 78.8986L60.2243 77.8394Z" fill="#2F2E41"/>
<path d="M64.128 46.9069C65.0986 47.9408 66.9013 47.3858 67.0278 45.9732C67.0377 45.8636 67.037 45.7532 67.0256 45.6437C66.9603 45.018 66.5989 44.4499 66.6854 43.7893C66.705 43.6248 66.7663 43.4681 66.8634 43.334C67.6369 42.2982 69.4526 43.7973 70.1827 42.8596C70.6303 42.2847 70.1041 41.3794 70.4476 40.7368C70.9009 39.8887 72.2438 40.3071 73.0859 39.8426C74.0228 39.3258 73.9668 37.8883 73.35 37.0139C72.5979 35.9476 71.2791 35.3786 69.9767 35.2966C68.6744 35.2146 67.381 35.5666 66.1652 36.0404C64.7837 36.5788 63.4138 37.3229 62.5636 38.5376C61.5298 40.0148 61.4303 42.0008 61.9474 43.7281C62.2619 44.7789 63.3353 46.0625 64.128 46.9069Z" fill="#2F2E41"/>
</g>
<path opacity="0.6" d="M156.324 50.5733L155.106 44.1821L148.715 45.4L149.933 51.7912L156.324 50.5733Z" fill="#D0EEF2"/>
<path d="M134.239 117.265C131.411 114.87 129.694 111.087 130.144 107.405C130.595 103.722 133.384 100.337 137.003 99.5546C140.621 98.7726 144.746 100.937 145.845 104.48C146.45 97.6497 147.147 90.533 150.77 84.7162C154.051 79.4493 159.733 75.6805 165.892 75.0063C172.05 74.3321 178.534 76.8786 182.374 81.7504C186.215 86.6222 187.156 93.7049 184.466 99.2981C182.484 103.418 178.833 106.485 175.008 108.98C162.648 116.973 147.823 120.224 133.262 118.133L134.239 117.265Z" fill="#DADADA"/>
<path d="M176.293 76.9463C171.202 81.0888 166.531 85.7218 162.348 90.7784C155.803 98.6649 150.505 107.507 146.642 116.997C146.359 117.689 147.484 117.99 147.764 117.306C154.086 101.883 164.177 88.2893 177.116 77.7684C177.697 77.2957 176.87 76.4776 176.293 76.9463Z" fill="white"/>
<path d="M179.221 118.724H29.6581C29.6019 118.724 29.5481 118.702 29.5083 118.662C29.4686 118.622 29.4463 118.568 29.4463 118.512C29.4463 118.456 29.4686 118.402 29.5083 118.362C29.5481 118.323 29.6019 118.3 29.6581 118.3H179.221C179.277 118.3 179.331 118.323 179.371 118.362C179.41 118.402 179.433 118.456 179.433 118.512C179.433 118.568 179.41 118.622 179.371 118.662C179.331 118.702 179.277 118.724 179.221 118.724Z" fill="#3F3D56"/>
<defs>
<clipPath id="clip0">
<rect width="149.986" height="117.758" fill="white" transform="translate(0 0.96582)"/>
</clipPath>
</defs>
</svg>
