<svg xmlns="http://www.w3.org/2000/svg" xmlns:xlink="http://www.w3.org/1999/xlink" viewBox="0 0 1475.97 916.55"><defs><style>.cls-1{fill:#4545ef;}.cls-2{fill:url(#Áåçûìÿííûé_ãðàäèåíò_39);}.cls-3{fill:#fff;}</style><linearGradient id="Áåçûìÿííûé_ãðàäèåíò_39" x1="1198.03" y1="624.35" x2="1439.07" y2="893.88" gradientUnits="userSpaceOnUse"><stop offset="0.14" stop-color="#00eb6a"/><stop offset="0.59" stop-color="#01d95e"/><stop offset="1" stop-color="#02c450"/></linearGradient></defs><g id="Layer_2" data-name="Layer 2"><g id="Ñëîé_1" data-name="Ñëîé 1"><path class="cls-1" d="M1160.43,601c29-29,128.08-31.24,157.76-31.24,16.61,0,54.94.71,90.56,6.41v-494A82.11,82.11,0,0,0,1326.65,0H82.11A82.11,82.11,0,0,0,0,82.11V776.52a82.11,82.11,0,0,0,82.11,82.11H1137.17c-7.21-38.07-8-81.91-8-100C1129.14,729,1131.43,630,1160.43,601Z"/><path class="cls-2" d="M1453.42,623.47c-4.39-4.39-19.08-10.77-47.12-15.48-24.65-4.14-55.94-6.42-88.11-6.42s-63.46,2.28-88.11,6.42c-28,4.71-42.73,11.09-47.12,15.48s-10.79,19.09-15.51,47.11c-4.16,24.66-6.45,55.93-6.46,88.08,0,73.58,11.3,124.62,22,135.28s61.67,22.39,134.7,22.6h2c31.4,0,61.85-2.26,85.93-6.38,35.41-6,45.59-13.95,47.87-16.23h0c2.28-2.27,10.17-12.45,16.21-47.87,4.19-24.59,6.44-55.82,6.34-87.94-.11-31.91-2.52-63-6.81-87.68C1464.32,642.57,1457.85,627.91,1453.42,623.47Z"/><path class="cls-3" d="M293.27,698.69l6.59.37a1.94,1.94,0,0,1,1.8,2.18,21.72,21.72,0,0,1-5,11.83,15.72,15.72,0,0,1-12.4,5.43q-9.42.06-14.39-7.07t-5.07-19.71q-.09-12.69,4.76-19.9t14.48-7.27q15.13-.1,17.31,18.1a2,2,0,0,1-1.75,2.19l-6.36.52a1.93,1.93,0,0,1-2.05-1.74q-.93-9.75-7.05-9.71c-2.34,0-4.19,1.28-5.55,3.79s-2,7.38-2,14.59q.06,9.66,2,13.27a6.12,6.12,0,0,0,5.74,3.59q5.59,0,6.92-8.83A1.92,1.92,0,0,1,293.27,698.69Z"/><path class="cls-3" d="M308.2,667.16a2,2,0,0,1,1.9-2l14.12-.09a42,42,0,0,1,7.15.39,11.69,11.69,0,0,1,5,2.34,12.83,12.83,0,0,1,4,5.26,19.08,19.08,0,0,1,1.49,7.53q.06,8.83-5.73,13a2,2,0,0,0-.7,2.41l7.75,18.56a2,2,0,0,1-1.75,2.74l-7.95.05a1.91,1.91,0,0,1-1.82-1.32l-6.06-18a1.93,1.93,0,0,0-1.82-1.32l-2.32,0a1.93,1.93,0,0,0-1.89,2l.11,16.78a1.94,1.94,0,0,1-1.9,2l-7.38,0a1.94,1.94,0,0,1-1.93-1.95Zm11.27,8.39.07,10.77a1.93,1.93,0,0,0,1.93,1.94l3,0q6.57,0,6.52-7.6a8.41,8.41,0,0,0-1-4.26,5.27,5.27,0,0,0-2.28-2.25,9.39,9.39,0,0,0-3.79-.57l-2.57,0A1.93,1.93,0,0,0,319.47,675.55Z"/><path class="cls-3" d="M351.79,664.9l27.18-.19a2,2,0,0,1,1.93,1.95l0,5.05a1.93,1.93,0,0,1-1.89,2l-16,.11a1.94,1.94,0,0,0-1.9,2l.06,8.23a1.94,1.94,0,0,0,1.92,2l11.57-.08a1.92,1.92,0,0,1,1.92,2l0,5a1.93,1.93,0,0,1-1.9,2l-11.57.08a2,2,0,0,0-1.9,2l.07,9a1.92,1.92,0,0,0,1.92,1.95l16-.11a2,2,0,0,1,1.92,1.95l0,5.44a1.94,1.94,0,0,1-1.9,2l-27.18.18a1.93,1.93,0,0,1-1.93-1.94l-.33-48.42A1.94,1.94,0,0,1,351.79,664.9Z"/><path class="cls-3" d="M386.39,666.62a1.93,1.93,0,0,1,1.9-2l10.15-.07q7.85-.06,12.77,2.08a16.27,16.27,0,0,1,7.92,7.94q3,5.8,3.06,15.74a40.19,40.19,0,0,1-1.71,12.53,23.07,23.07,0,0,1-4.65,8.64,14.41,14.41,0,0,1-6.54,4.26,33,33,0,0,1-9.15,1.14l-11.5.08a2,2,0,0,1-1.92-2Zm11.27,8.9.2,30.47a1.94,1.94,0,0,0,1.93,2h0a10.17,10.17,0,0,0,6-1.58,10.35,10.35,0,0,0,3.37-5.38q1.26-3.83,1.2-11,0-6.68-1.47-10.28a9.54,9.54,0,0,0-3.56-4.87,11.08,11.08,0,0,0-5.8-1.24h0A1.93,1.93,0,0,0,397.66,675.52Z"/><path class="cls-3" d="M431.28,664.36l7.39-.05a1.92,1.92,0,0,1,1.92,1.94l.33,48.42a1.93,1.93,0,0,1-1.9,2l-7.38.05a1.92,1.92,0,0,1-1.92-1.94l-.33-48.42A1.93,1.93,0,0,1,431.28,664.36Z"/><path class="cls-3" d="M446.41,664.25l28-.19a1.93,1.93,0,0,1,1.92,2l.05,5.89a2,2,0,0,1-1.9,2l-6.6,0a1.94,1.94,0,0,0-1.9,2l.26,38.6a1.93,1.93,0,0,1-1.9,2l-7.38,0a1.92,1.92,0,0,1-1.92-1.95l-.27-38.6a1.92,1.92,0,0,0-1.92-1.94l-6.34,0a1.93,1.93,0,0,1-1.92-2l0-5.89A1.93,1.93,0,0,1,446.41,664.25Z"/><path class="cls-3" d="M521.25,697.14l6.59.37a1.94,1.94,0,0,1,1.8,2.18,21.78,21.78,0,0,1-5,11.83A15.78,15.78,0,0,1,512.25,717q-9.4.06-14.39-7.07t-5.07-19.71q-.07-12.69,4.76-19.9T512,663q15.12-.11,17.31,18.1a2,2,0,0,1-1.75,2.19l-6.36.52a1.92,1.92,0,0,1-2-1.74c-.63-6.5-3-9.74-7.05-9.71-2.34,0-4.2,1.28-5.56,3.79s-2,7.38-2,14.59q.07,9.66,2,13.27a6.11,6.11,0,0,0,5.74,3.58q5.6,0,6.92-8.82A1.91,1.91,0,0,1,521.25,697.14Z"/><path class="cls-3" d="M547.19,663.57l8.42-.06a1.92,1.92,0,0,1,1.85,1.41l13.81,48.32a2,2,0,0,1-1.82,2.52l-7.43,0a1.92,1.92,0,0,1-1.86-1.49l-1.9-7.8A1.92,1.92,0,0,0,556.4,705l-11.35.08a1.92,1.92,0,0,0-1.85,1.52l-1.75,7.81A1.93,1.93,0,0,1,539.6,716l-6.22,0a2,2,0,0,1-1.84-2.51L545.37,665A1.92,1.92,0,0,1,547.19,663.57Zm7.94,30.07-2.75-11.12a1.9,1.9,0,0,0-3.71.05l-2.49,11.15a2,2,0,0,0,1.87,2.4l5.24,0A2,2,0,0,0,555.13,693.64Z"/><path class="cls-3" d="M575.9,665.33a1.93,1.93,0,0,1,1.89-2l14.12-.1a42.79,42.79,0,0,1,7.15.4,11.69,11.69,0,0,1,5,2.34,12.75,12.75,0,0,1,4,5.26,19,19,0,0,1,1.49,7.53q.06,8.84-5.73,13a2,2,0,0,0-.7,2.41l7.75,18.56a2,2,0,0,1-1.74,2.74l-8,0a1.91,1.91,0,0,1-1.82-1.32l-6.07-18a1.92,1.92,0,0,0-1.82-1.32l-2.32,0a1.93,1.93,0,0,0-1.89,2l.11,16.78a1.94,1.94,0,0,1-1.9,2l-7.38.05a2,2,0,0,1-1.93-2Zm11.26,8.4.07,10.76a1.94,1.94,0,0,0,1.93,2l3,0q6.57,0,6.52-7.6a8.31,8.31,0,0,0-1-4.26,5.27,5.27,0,0,0-2.28-2.25,9.39,9.39,0,0,0-3.79-.57l-2.57,0A1.93,1.93,0,0,0,587.16,673.73Z"/><path class="cls-3" d="M617.58,665.05a1.94,1.94,0,0,1,1.9-2l10.16-.07q7.85-.06,12.77,2.08a16.35,16.35,0,0,1,7.92,7.94q3,5.81,3,15.74a39.91,39.91,0,0,1-1.7,12.53,23.07,23.07,0,0,1-4.65,8.64,14.44,14.44,0,0,1-6.55,4.26,33.27,33.27,0,0,1-9.14,1.14l-11.5.07a1.93,1.93,0,0,1-1.93-1.94Zm11.27,8.9.21,30.47a2,2,0,0,0,1.92,2h0a10.28,10.28,0,0,0,6-1.58,10.46,10.46,0,0,0,3.37-5.38,36.82,36.82,0,0,0,1.2-11c0-4.46-.53-7.88-1.48-10.28a9.53,9.53,0,0,0-3.55-4.87,11.18,11.18,0,0,0-5.8-1.25h0A1.94,1.94,0,0,0,628.85,674Z"/><path class="cls-3" d="M213.15,369.28a125.12,125.12,0,0,1,.94-16.53,1.77,1.77,0,0,0-1.86-1.94l-42.13.44a1.8,1.8,0,0,0-1.85,1.75l.35,33.49a1.8,1.8,0,0,0,1.88,1.71l42.14-.44a1.78,1.78,0,0,0,1.82-2A123.25,123.25,0,0,1,213.15,369.28Z"/><path class="cls-3" d="M290.85,434l22-.22c21.43-.23,38.64-16.56,38.43-36.49h0a4.84,4.84,0,0,0-3.52-1.7l-42.92.45A1.83,1.83,0,0,0,303,397.4a120.87,120.87,0,0,1-13.84,34A1.73,1.73,0,0,0,290.85,434Z"/><path class="cls-3" d="M228.55,303.58l-22,.23c-21.43.22-38.64,16.56-38.43,36.49h0a1.43,1.43,0,0,0,1.55,1.71l44.89-.46a1.84,1.84,0,0,0,1.8-1.37,121.08,121.08,0,0,1,13.83-34A1.73,1.73,0,0,0,228.55,303.58Z"/><path class="cls-3" d="M306.77,349.83a1.78,1.78,0,0,0-1.82,2,122.95,122.95,0,0,1,.35,33,1.78,1.78,0,0,0,1.86,1.94l42.14-.44a1.8,1.8,0,0,0,1.84-1.75l-.35-33.49a1.8,1.8,0,0,0-1.88-1.71Z"/><path class="cls-3" d="M254,434.39l12.79-.14a11.8,11.8,0,0,0,9.9-5.36c24.52-39,24.07-82.06-1.25-120.53a11.81,11.81,0,0,0-10-5.16l-12.79.13a11.83,11.83,0,0,0-9.9,5.37c-24.52,39-24.07,82.06,1.25,120.53A11.81,11.81,0,0,0,254,434.39Z"/><path class="cls-3" d="M350.66,338.4h0c-.21-19.93-17.75-35.9-39.18-35.68l-22,.23a1.73,1.73,0,0,0-1.59,2.59,120.92,120.92,0,0,1,14.54,33.75,1.85,1.85,0,0,0,1.82,1.33l44.17-.46A2.36,2.36,0,0,0,350.66,338.4Z"/><path class="cls-3" d="M168.73,399.18h0c.21,19.93,17.75,35.91,39.19,35.69l22-.23a1.74,1.74,0,0,0,1.59-2.6A121,121,0,0,1,217,398.3a1.82,1.82,0,0,0-1.82-1.33l-45.44.47A1.11,1.11,0,0,0,168.73,399.18Z"/><path class="cls-3" d="M1236.52,299.75a123,123,0,0,1-41.12,91.79l16.35,16.35a146,146,0,0,0,0-216.29L1195.4,208A123,123,0,0,1,1236.52,299.75Z"/><path class="cls-3" d="M1219.17,299.75a109.58,109.58,0,0,0-35.12-80.44l-16.39,16.39a86.47,86.47,0,0,1,0,128.1l16.39,16.39A109.58,109.58,0,0,0,1219.17,299.75Z"/><path class="cls-3" d="M1180.62,299.75a71.13,71.13,0,0,0-23.86-53.15L1140.38,263a48.08,48.08,0,0,1,0,73.54l16.38,16.38A71.13,71.13,0,0,0,1180.62,299.75Z"/><polygon class="cls-3" points="1395.63 743.13 1334.41 743.13 1334.41 681.91 1302.55 681.91 1302.55 743.13 1241.34 743.13 1241.33 774.98 1302.55 774.98 1302.55 836.2 1334.41 836.2 1334.41 774.98 1395.63 774.98 1395.63 743.13"/></g></g></svg>