<?xml version="1.0" standalone="no"?>
<!DOCTYPE svg PUBLIC "-//W3C//DTD SVG 20010904//EN"
 "http://www.w3.org/TR/2001/REC-SVG-20010904/DTD/svg10.dtd">
<svg version="1.0" xmlns="http://www.w3.org/2000/svg"
 width="355.000000pt" height="355.000000pt" viewBox="0 0 355.000000 355.000000"
 preserveAspectRatio="xMidYMid meet">
<metadata>
Created by potrace 1.14, written by Peter Selinger 2001-2017
</metadata>
<g transform="translate(0.000000,355.000000) scale(0.100000,-0.100000)"
fill="#000000" stroke="none">
<path d="M3255 3103 c-83 -30 -146 -72 -226 -152 -95 -96 -166 -190 -269 -361
-121 -199 -314 -602 -409 -853 l-11 -27 -58 29 c-166 84 -462 139 -747 138
-191 0 -237 -9 -408 -79 -289 -118 -556 -319 -775 -583 -59 -71 -172 -232
-172 -245 0 -4 -3 -10 -7 -12 -17 -7 -156 -282 -169 -332 -7 -28 13 -45 95
-86 101 -51 199 -81 311 -98 60 -9 361 -9 427 1 167 23 439 98 470 129 7 7 39
79 72 160 132 324 337 724 413 805 12 12 17 27 13 34 -5 8 -4 10 4 5 6 -4 14
0 17 8 4 11 20 16 53 16 62 0 117 -18 238 -79 105 -52 161 -70 248 -77 127
-10 250 116 349 357 18 46 52 122 73 169 22 47 64 141 93 210 59 137 159 341
214 435 20 33 39 67 43 75 3 8 9 17 13 20 3 3 17 23 30 45 13 22 26 42 30 45
3 3 18 23 34 45 79 109 206 205 271 205 36 0 23 18 -30 41 -64 28 -169 34
-230 12z"/>
</g>
</svg>
